<?xml version="1.0" standalone="no"?>
<!DOCTYPE svg PUBLIC "-//W3C//DTD SVG 20010904//EN"
 "http://www.w3.org/TR/2001/REC-SVG-20010904/DTD/svg10.dtd">
<svg version="1.0" xmlns="http://www.w3.org/2000/svg"
 width="384.000000pt" height="384.000000pt" viewBox="0 0 384.000000 384.000000"
 preserveAspectRatio="xMidYMid meet">
<metadata>
Created by potrace 1.10, written by Peter Selinger 2001-2011
</metadata>
<g transform="translate(0.000000,384.000000) scale(0.100000,-0.100000)"
fill="#706e6e" stroke="none">
<path d="M772 3748 c-62 -24 -112 -80 -130 -144 -9 -30 -12 -208 -12 -627 0
-647 -5 -597 65 -597 21 0 35 6 39 16 3 9 6 281 6 605 l0 589 29 32 29 33 908
3 c804 2 910 1 930 -13 l24 -15 0 -251 c0 -243 1 -252 24 -303 28 -60 80 -106
142 -124 27 -8 124 -12 272 -12 127 0 242 -4 256 -10 l26 -10 0 -1345 0 -1345
-29 -32 -29 -33 -1229 -3 c-675 -1 -1242 0 -1260 3 -18 3 -45 19 -60 35 l-28
30 -5 248 -5 247 -50 0 -50 0 -3 -234 c-3 -270 4 -308 68 -370 78 -76 -12 -71
1365 -71 1376 0 1288 -5 1364 71 76 76 71 -26 71 1479 l0 1344 -415 413 -415
413 -922 -1 c-912 0 -924 -1 -976 -21z m2231 -472 c114 -113 207 -209 207
-215 0 -8 -58 -11 -183 -11 l-183 0 -34 29 -35 29 -3 172 c-3 168 -1 200 15
200 4 0 101 -92 216 -204z"/>
<path d="M478 2247 c-44 -12 -107 -67 -134 -117 -18 -33 -19 -66 -22 -555 -2
-465 -1 -525 14 -565 20 -54 64 -103 116 -130 38 -20 59 -20 1218 -20 1159 0
1180 0 1218 20 55 29 98 78 116 133 14 41 16 117 16 553 0 485 -1 507 -20 549
-11 25 -36 60 -54 79 -70 70 -1 66 -1280 65 -766 -1 -1163 -5 -1188 -12z m757
-359 c35 -13 40 -19 39 -44 -2 -34 -26 -100 -42 -116 -9 -9 -23 -8 -59 1 -130
35 -191 20 -231 -58 -18 -34 -22 -59 -22 -131 0 -101 18 -149 67 -181 36 -24
150 -26 198 -3 59 28 70 19 73 -62 2 -51 -1 -76 -11 -86 -8 -7 -55 -22 -105
-32 -88 -18 -94 -18 -169 -1 -129 30 -198 88 -242 206 -38 100 -22 322 28 372
6 6 11 15 11 20 0 16 91 97 128 114 72 32 253 33 337 1z m590 3 c47 -18 50
-21 49 -53 -2 -47 -29 -112 -49 -116 -9 -2 -38 3 -64 12 -92 30 -124 31 -156
3 l-29 -24 25 -25 c14 -14 65 -45 113 -69 118 -58 163 -103 171 -174 19 -146
-44 -230 -198 -269 -70 -18 -107 -16 -220 9 -83 19 -87 25 -87 112 0 89 7 94
86 64 39 -15 78 -21 130 -21 70 0 75 2 86 25 16 35 -3 52 -119 111 -147 75
-184 131 -171 265 6 61 46 115 109 146 61 30 249 33 324 4z m339 3 c9 -8 16
-25 16 -36 0 -11 7 -41 14 -67 8 -25 22 -71 30 -101 8 -30 21 -80 30 -110 8
-30 18 -73 21 -95 6 -37 8 -39 21 -20 8 11 19 38 25 60 29 109 65 240 88 315
l19 65 101 3 c84 2 102 0 107 -13 6 -14 -22 -119 -51 -190 -6 -16 -20 -57 -30
-90 -9 -33 -21 -68 -26 -77 -5 -10 -13 -34 -18 -55 -5 -21 -15 -54 -22 -73 -6
-19 -17 -51 -24 -70 -7 -19 -21 -62 -32 -95 l-20 -60 -111 -3 c-133 -3 -123
-12 -177 158 -20 63 -43 131 -50 150 -30 83 -37 107 -46 145 -6 22 -14 44 -20
50 -5 5 -9 18 -9 28 0 10 -6 33 -13 50 -25 59 -46 131 -41 139 3 4 50 8 104 8
76 0 102 -4 114 -16z"/>
</g>
</svg>
