<svg width="300" height="72" xmlns="http://www.w3.org/2000/svg" preserveAspectRatio="xMidYMid meet">
 <metadata>Created by potrace 1.10, written by Peter Selinger 2001-2011</metadata>

 <g>
  <title>background</title>
  <rect x="-1" y="-1" width="302" height="74" id="canvas_background" fill="none"/>
 </g>
 <g>
  <title>Layer 1</title>
  <g stroke="null" transform="translate(0,468) scale(0.10000000149011612,-0.10000000149011612) " fill="#ffffff" id="svg_1">
   <path stroke="null" d="m454.972528,4575.653922c-2.624113,-1.962325 -4.905948,-3.67936 -5.248225,-3.67936c-0.228184,0 -8.442794,-5.764328 -18.368784,-12.877756c-9.811897,-7.113427 -18.140601,-12.877757 -18.368784,-12.877757c-0.114092,0 -3.536845,-2.33026 -7.53006,-5.273748c-3.993214,-2.943487 -8.10052,-5.641683 -9.241438,-6.132265c-5.704592,-2.33026 3.422754,-6.622845 14.603754,-6.868136c3.19457,-0.122645 7.986428,-0.735872 10.838723,-1.471745c2.852296,-0.735871 9.013254,-1.717033 13.691019,-2.33026c4.677765,-0.49058 12.43601,-1.594388 17.113774,-2.452905c13.576927,-2.207615 29.093415,-4.660522 43.925354,-6.745492c7.53006,-1.103808 18.140601,-2.698196 23.502916,-3.679358c5.362316,-0.981162 11.180998,-1.83968 13.006468,-1.83968c1.825469,0 7.644153,-0.858517 13.006468,-1.83968c5.362316,-0.981162 15.972855,-2.575552 23.502916,-3.67936c7.530061,-1.103808 18.140601,-2.698196 23.502916,-3.679358c5.362316,-0.981162 11.181,-1.83968 13.006468,-1.83968c1.825469,0 7.644153,-0.858517 13.006468,-1.83968c5.362316,-0.981162 15.972855,-2.57555 23.502916,-3.679358c7.530061,-1.103809 18.140601,-2.698197 23.502916,-3.67936c5.362317,-0.981162 11.181,-1.83968 13.006468,-1.83968c1.82547,0 7.644153,-0.858517 13.006468,-1.83968c5.362316,-0.981162 15.972857,-2.57555 23.502916,-3.679358c7.530061,-1.103808 18.140601,-2.698197 23.502916,-3.67936c5.362317,-0.981162 11.295092,-1.83968 13.12056,-1.83968c1.82547,0 7.415969,-0.735871 12.43601,-1.717033c10.838723,-2.08497 25.55657,-4.415232 36.509385,-5.641685c4.449581,-0.49058 11.865551,-1.594388 16.543315,-2.452905c13.462836,-2.207615 29.093415,-4.660522 43.925354,-6.745492c7.53006,-1.103808 18.140601,-2.698196 23.502916,-3.679358c5.362316,-0.981162 11.180998,-1.83968 13.006468,-1.83968c1.825469,0 7.644151,-0.858517 13.006468,-1.717035c15.174212,-2.820842 33.542997,-5.641683 35.824832,-5.641683c1.711378,0 1.939562,1.471743 1.939562,12.75511l0,12.75511l-10.496448,1.962325c-5.818684,0.981162 -16.771499,2.698197 -24.30156,3.802005c-7.530061,1.103808 -18.596968,2.698197 -24.529742,3.67936c-5.932776,0.981162 -16.771499,2.57555 -23.959285,3.679358c-7.187784,1.103808 -17.57014,2.698197 -22.932457,3.67936c-5.362316,0.981162 -11.180998,1.83968 -13.006468,1.83968c-1.825469,0 -7.644151,0.858516 -13.006467,1.839678c-5.362317,0.981162 -15.972857,2.575552 -23.502918,3.67936c-7.53006,1.103808 -18.596968,2.698197 -24.529742,3.67936c-5.932775,0.858516 -14.37557,2.207615 -18.711059,2.943487c-4.335489,0.613226 -8.328704,1.717033 -8.899163,2.33026c-0.684551,0.735872 -0.342275,6.622845 0.912734,15.453308c1.369101,10.792786 1.597285,14.717435 0.570459,15.821243c-0.684551,0.735872 -4.791857,1.717035 -9.013254,2.207615c-4.221398,0.490582 -11.523274,1.471745 -16.201039,2.330262c-4.677765,0.735871 -13.462836,2.08497 -19.395612,3.066133c-5.932775,0.981162 -14.717845,2.33026 -19.39561,3.066133c-4.677765,0.858516 -12.093734,1.962323 -16.543315,2.452905c-4.335489,0.49058 -11.865549,1.594388 -16.543314,2.452905c-4.677765,0.735872 -13.462836,2.08497 -19.395612,3.066133c-5.932775,0.981162 -14.717845,2.330262 -19.39561,3.066133c-4.677765,0.858517 -12.093734,1.962325 -16.543315,2.452907c-4.335489,0.49058 -11.865549,1.594388 -16.543314,2.452905c-4.677765,0.735872 -13.462836,2.08497 -19.395612,3.066133c-5.932775,0.981162 -14.717845,2.33026 -19.39561,3.066133c-4.677765,0.858517 -12.093734,1.962325 -16.543315,2.452907c-8.785071,1.103808 -19.851977,2.820841 -34.912098,5.641683c-5.362317,0.858517 -12.892377,1.717035 -16.657407,1.717035c-5.818683,0 -7.530061,-0.613227 -11.523275,-3.67936l0.000002,0z" id="svg_2"/>
   <path stroke="null" d="m367.235912,4515.435081c-0.684551,-0.735872 -2.281836,-1.962325 -3.650939,-2.820842c-1.93956,-1.103808 -9.697805,-6.377555 -21.221079,-14.226855c-1.483195,-0.981162 -6.389143,-4.292585 -10.838725,-7.358718c-4.449581,-3.066133 -9.35553,-6.377555 -10.838723,-7.358718c-1.483193,-0.981162 -6.160958,-4.16994 -10.496448,-7.113427c-4.221398,-2.943487 -11.637367,-7.971945 -16.315132,-11.406013c-4.677765,-3.311423 -9.583713,-6.622845 -10.838723,-7.236073c-2.966388,-1.717035 -5.476409,-3.311423 -13.691019,-9.198398c-3.765031,-2.698196 -7.758245,-5.396393 -8.785071,-6.132265c-13.006468,-8.33988 -23.7311,-15.821243 -23.7311,-16.802405c0,-1.59439 5.134132,-3.311423 12.321916,-4.16994c3.536847,-0.367937 11.181,-1.349098 16.771499,-2.33026c5.704591,-0.981162 16.429224,-2.575552 23.959283,-3.67936c7.530061,-1.103808 18.140601,-2.698197 23.502916,-3.67936c5.362317,-0.981162 11.181,-1.839678 13.006468,-1.839678c1.82547,0 7.644153,-0.858517 13.006468,-1.83968c5.362316,-0.981162 15.972857,-2.575552 23.502916,-3.67936c14.603755,-2.08497 30.120243,-4.537875 43.925354,-6.745491c4.677765,-0.858517 12.43601,-1.962325 17.113774,-2.452907c4.677765,-0.49058 12.43601,-1.594388 17.113774,-2.452905c4.677765,-0.735872 13.462836,-2.08497 19.39561,-3.066133c5.932775,-0.981162 14.717845,-2.33026 19.39561,-3.066133c4.677765,-0.858517 12.43601,-1.962325 17.113774,-2.452907c4.677765,-0.49058 12.43601,-1.594388 17.113774,-2.452905c13.576927,-2.207615 29.093415,-4.66052 43.925354,-6.745491c7.53006,-1.103809 18.596968,-2.698197 24.529742,-3.67936c10.496448,-1.59439 22.704274,-3.434068 49.401761,-7.358718c6.959601,-1.103808 17.227866,-2.698197 22.590182,-3.67936c5.362316,-0.981162 11.29509,-1.83968 13.12056,-1.83968c1.825469,0 7.644153,-0.735871 13.006468,-1.717033c5.362316,-0.981162 15.858763,-2.698197 23.388824,-3.802005c14.831937,-2.08497 30.348426,-4.537875 43.925354,-6.745491c4.677765,-0.858517 12.436008,-1.962325 17.113773,-2.452907c4.677765,-0.49058 12.43601,-1.594388 17.113774,-2.452905c13.805111,-2.207615 29.3216,-4.660522 43.925354,-6.745492c7.530061,-1.103808 18.140601,-2.698196 23.502916,-3.679358c5.362316,-0.981162 11.181,-1.83968 13.006468,-1.83968c1.825469,0 7.644153,-0.858517 13.006468,-1.83968c5.362316,-0.981162 15.972855,-2.57555 23.502916,-3.67936c7.530061,-1.103808 18.596968,-2.698196 24.529744,-3.679358c29.663874,-4.660522 29.892058,-4.660522 30.918884,-2.943487c0.570459,0.981162 1.026828,23.670543 1.026828,50.529863c0,54.331868 0,54.086576 -7.644153,60.832068c-2.852296,2.57555 -6.389143,3.92465 -13.805111,5.396393c-5.476407,1.226453 -11.409183,2.08497 -13.234652,2.08497c-1.825469,0 -7.758245,0.858517 -13.12056,1.83968c-5.362316,0.981162 -15.972855,2.57555 -23.502916,3.67936c-7.530061,1.103808 -19.281518,2.820841 -26.241121,3.802003c-6.845509,0.981162 -16.999683,2.698197 -22.361998,3.67936c-5.362316,0.858517 -11.523274,1.717035 -13.576927,1.717035c-2.053652,0 -8.214612,0.858516 -13.576927,1.839678c-5.362316,0.981162 -15.972855,2.575552 -23.502916,3.67936c-7.530061,1.103808 -16.999683,2.57555 -21.106989,3.311423c-4.107306,0.735872 -10.952815,1.717035 -15.402396,2.207615c-10.838725,1.226453 -25.442478,3.556715 -36.509385,5.641685c-5.02004,0.981162 -10.838725,1.717033 -13.006468,1.717033c-2.167746,0 -8.328704,0.858517 -13.691019,1.83968c-9.241438,1.59439 -14.717845,2.452907 -48.603119,7.358718c-7.530061,1.103808 -18.596968,2.698197 -24.529742,3.67936c-5.932776,0.981162 -16.999683,2.57555 -24.529744,3.67936c-7.53006,1.103808 -18.140601,2.698196 -23.502916,3.679358c-5.362316,0.981162 -11.523274,1.83968 -13.576927,1.83968c-2.053652,0 -8.214612,0.858517 -13.576927,1.83968c-5.362316,0.981162 -15.972855,2.57555 -23.502916,3.679358c-7.530061,1.103808 -18.596968,2.698197 -24.529742,3.67936c-5.932776,0.981162 -16.999683,2.57555 -24.529744,3.67936c-7.530061,1.103808 -18.596968,2.698196 -24.529742,3.679358c-5.932776,0.981162 -16.999683,2.575552 -24.529744,3.67936c-7.53006,1.103808 -18.596968,2.698196 -24.529742,3.802003c-12.892377,2.08497 -21.905631,2.207617 -23.617008,0.367937l-0.000002,0zm13.919203,-32.991585c2.510021,-0.613227 9.241438,-1.717035 14.831939,-2.452907c5.704591,-0.735871 12.207824,-1.839678 14.603754,-2.57555c4.905948,-1.349099 5.02004,-1.962325 2.510021,-16.43447c-2.966388,-17.660923 -5.134134,-31.765133 -5.362317,-35.567137c-0.342275,-3.556713 -0.570459,-3.679358 -5.476407,-3.556713c-4.905948,0 -12.664193,1.103808 -36.509385,4.783167c-16.999683,2.698196 -29.435691,4.41523 -39.93214,5.641683c-5.362316,0.613227 -11.180998,1.471745 -13.12056,2.08497c-3.879122,1.226453 -5.134132,4.41523 -2.053652,5.641685c1.140918,0.367935 3.08048,1.471743 4.335489,2.33026c2.966386,1.962325 34.227547,24.038478 44.838088,31.642488c4.677765,3.311423 8.785071,6.009618 9.35553,6.009618c0.456367,0 1.483193,0.858517 2.281836,1.83968c1.597287,2.08497 3.422755,2.207615 9.697805,0.613227zm79.86428,-12.01924c7.530061,-1.349098 13.462836,-2.207615 46.777649,-6.990782c7.530061,-1.103808 18.596968,-2.698196 24.529744,-3.679358c5.932775,-0.981162 14.261478,-2.08497 18.482876,-2.452907c11.637365,-1.226453 11.865549,-1.594388 9.697805,-15.453308c-2.167746,-13.490983 -4.335489,-28.94429 -5.248224,-36.670943c-0.798644,-6.868137 -1.939562,-7.113427 -17.798325,-4.537877c-6.275051,1.103809 -17.570142,2.820842 -25.100203,3.92465c-7.53006,0.981162 -17.227866,2.452907 -21.677446,3.188778c-4.335489,0.735872 -12.093734,1.83968 -17.113774,2.330262c-5.02004,0.613226 -11.865551,1.594388 -15.288306,2.33026c-3.308662,0.735872 -7.872335,1.349098 -9.925989,1.349098c-5.818683,0 -15.060121,2.452907 -15.63058,4.16994c-0.342275,0.858517 0.114092,5.641685 1.026826,10.670142c2.167744,12.877756 4.791857,30.170743 5.590499,36.548298c0.342275,2.943487 0.912734,5.886975 1.369101,6.622845c0.684552,1.226454 7.187786,0.735872 20.308346,-1.349098zm150.030752,-21.708218c4.107306,-0.981162 9.469622,-1.717035 11.865551,-1.83968c2.510019,0 8.899163,-0.858516 14.261478,-1.83968c5.362316,-0.981161 15.972855,-2.57555 23.502916,-3.679358c7.530061,-0.981162 17.341958,-2.452907 21.677447,-3.188778c4.449581,-0.735872 12.321918,-1.83968 17.798325,-2.330262c5.362316,-0.613226 11.180998,-1.717033 12.892377,-2.452905c2.738203,-1.103808 3.080478,-1.717035 2.510019,-4.66052c-0.342275,-1.83968 -1.140918,-7.113427 -1.825469,-11.896595c-0.684551,-4.66052 -2.053654,-12.75511 -2.966388,-17.783568c-0.912734,-5.151103 -1.597285,-11.528658 -1.597285,-14.226855c0,-8.462525 -1.597287,-9.075752 -19.395612,-6.132265c-10.382356,1.717035 -19.281518,3.066133 -49.629945,7.481364c-7.53006,1.103808 -18.825151,2.820841 -25.100201,3.679358c-6.275051,0.981162 -14.489662,2.08497 -18.254692,2.575552c-3.765031,0.367935 -7.758245,1.226453 -8.785071,1.839678c-3.08048,1.717035 -3.08048,1.83968 2.966388,38.020043c1.026826,5.886975 1.825469,12.01924 1.825469,13.613628c0,1.717035 0.342275,3.434069 0.798643,3.802005c1.25501,1.349098 9.583713,0.858517 17.45605,-0.981162zm151.17167,-22.566735c4.449581,-0.613226 13.691021,-2.08497 20.53653,-3.066133c33.314813,-4.783166 40.730782,-5.886973 50.770863,-7.481363c5.932776,-0.981162 14.147386,-2.08497 18.026509,-2.452907c3.993214,-0.367935 8.556887,-1.226453 10.04008,-1.839678c2.624113,-1.103808 2.738204,-1.59439 2.053654,-8.217235c-0.342275,-3.92465 -1.369101,-10.792787 -2.281837,-15.330663c-0.912734,-4.537877 -1.597285,-9.93427 -1.597285,-12.01924c0,-2.08497 -0.798643,-7.726653 -1.825469,-12.50982l-1.82547,-8.58517l-7.073692,0.613226c-3.765031,0.245292 -10.724633,1.103808 -15.174214,1.962325c-19.851977,3.311423 -25.328385,4.16994 -33.428905,5.028457c-4.677765,0.490582 -12.43601,1.59439 -17.113774,2.33026c-21.22108,3.556715 -25.100201,4.16994 -34.798008,5.151103c-12.892375,1.349099 -14.489662,2.820842 -13.12056,11.528659c3.308663,20.359118 4.563673,28.94429 5.134134,34.708618c0.342275,3.556715 1.140918,7.8493 1.825469,9.68898c1.25501,3.434068 1.93956,3.434068 19.851977,0.49058zm143.185244,-22.321443c4.677765,-0.735872 13.234652,-2.330262 18.825151,-3.556715l10.268266,-2.08497l0.342275,-27.104611l0.228184,-27.227257l-3.650939,0c-2.053654,0 -8.899163,0.735872 -15.174212,1.717035c-6.275051,1.103808 -15.972857,2.575552 -21.677447,3.434068c-10.154172,1.59439 -10.268266,1.59439 -10.610541,5.273749c-0.228184,1.962323 0.342277,8.33988 1.369103,14.104208c0.912734,5.76433 2.510019,15.94389 3.650939,22.68938c2.395928,16.18918 2.281836,15.698598 5.362316,14.840082c1.369101,-0.367937 6.389142,-1.349099 11.066907,-2.08497z" id="svg_3"/>
   <path stroke="null" d="m99.918761,4430.68718c0,-0.981162 2.395929,-5.51904 5.476409,-10.056915c2.966386,-4.537875 9.013253,-13.736273 13.348742,-20.35912c4.449581,-6.622845 9.697805,-14.717435 11.751459,-18.028858c2.053654,-3.188778 7.530061,-11.651305 12.207826,-18.764732c12.436008,-18.76473 20.65062,-31.397196 26.925671,-41.086174c2.966386,-4.660522 8.21461,-12.755112 11.637365,-17.783568c3.308663,-5.028457 8.899163,-13.490984 12.321918,-18.887377c11.979641,-18.642085 19.851977,-29.557516 21.563356,-29.680163c2.053652,-0.24529 25.100201,-3.434068 39.361679,-5.519038c5.704592,-0.735872 14.375571,-1.83968 19.395612,-2.33026c9.35553,-0.981162 19.851977,-2.33026 43.012618,-5.76433c7.415969,-1.103808 13.805111,-1.717033 14.147386,-1.226453c0.684552,0.613227 -1.597285,8.953107 -3.080478,11.283368c-0.456367,0.735872 -3.650939,8.58517 -7.301878,17.660923c-3.536847,9.075752 -7.073694,17.415633 -7.758245,18.51944c-1.825469,3.311423 -0.114092,6.5002 2.966388,5.641683c1.483193,-0.367935 5.704591,-0.981162 9.35553,-1.349098c3.765031,-0.367935 12.207826,-1.471743 18.825151,-2.452905c6.617327,-0.981162 18.140601,-2.575552 25.670662,-3.67936c7.530061,-0.981162 18.825151,-2.698196 25.100203,-3.679358c6.27505,-0.981162 13.234651,-1.83968 15.402396,-1.83968c2.167744,0 7.986428,-0.858517 12.892377,-1.83968c4.905948,-0.981162 11.409182,-1.83968 14.261478,-1.83968c2.966386,0 5.932775,-0.49058 6.617325,-0.981162c1.255011,-0.858517 3.308663,-6.868137 6.731419,-19.255312c9.35553,-34.340683 9.697805,-34.953909 18.825151,-34.953909c2.167746,0 8.10052,-0.858517 13.12056,-1.83968c5.02004,-0.981162 14.261478,-2.575552 20.536528,-3.67936c6.275051,-1.103808 14.26148,-2.57555 17.684233,-3.188778c3.422755,-0.735872 9.583713,-1.717035 13.691019,-2.33026c4.107306,-0.490582 10.496449,-1.471745 14.261478,-2.207615c3.765031,-0.735872 11.979642,-2.207615 18.254692,-3.311424c6.275051,-1.103808 15.516489,-2.698196 20.53653,-3.679358c10.154172,-2.08497 20.65062,-2.452907 21.563356,-0.735872c0.684551,1.103808 11.409182,5.028457 22.361998,8.09459c6.046866,1.594388 11.409182,1.962325 29.093415,1.471743c26.012937,-0.613226 27.382038,-0.981162 52.368149,-14.226853c21.90563,-11.651305 25.214293,-13.000402 40.04623,-16.311825c11.181,-2.452907 11.637367,-2.452907 21.677447,-0.367937c9.127346,1.962325 13.006468,3.311424 18.825151,6.868137c0.912736,0.613227 2.510021,1.471743 3.422755,1.962325c0.912734,0.49058 5.362316,3.066133 9.697805,5.886975c7.758245,4.783166 18.939243,10.302205 30.804794,14.962726c8.328704,3.188778 46.093098,3.188778 55.334536,-0.122645c11.066908,-3.92465 19.623795,-8.953107 33.65709,-19.623248c2.395928,-1.83968 4.677765,0 11.865549,9.93427c9.811897,13.490983 14.717845,20.113828 17.570142,23.670543c1.369101,1.717033 5.02004,6.5002 7.986428,10.67014c2.966388,4.16994 6.046866,8.33988 6.845509,9.198398c4.221398,4.783166 37.308029,50.039281 37.308029,51.020443c0,1.471745 -8.442795,3.556715 -18.026509,4.537877c-3.536847,0.49058 -11.066908,1.471743 -16.771499,2.452905c-5.590499,0.981162 -16.429224,2.57555 -23.959283,3.67936c-7.530061,1.103808 -18.596968,2.698196 -24.529744,3.679358c-5.932775,0.981162 -16.999683,2.575552 -24.529742,3.67936c-38.220763,5.641683 -40.274415,5.886973 -69.025555,10.42485c-4.677765,0.735872 -12.664193,1.83968 -17.684233,2.452905c-5.02004,0.490582 -11.409183,1.59439 -14.261478,2.330262c-2.852296,0.735871 -7.187786,1.349098 -9.583713,1.349098c-2.510021,0 -8.899163,0.858517 -14.26148,1.83968c-5.362316,0.981162 -15.972855,2.57555 -23.502916,3.679358c-15.174212,2.207615 -30.918885,4.660522 -43.925352,6.745492c-4.677765,0.858517 -12.43601,1.962325 -17.113774,2.452905c-4.677765,0.490582 -12.093734,1.59439 -16.543315,2.33026c-8.785071,1.471745 -24.41565,3.802005 -45.636731,6.868137c-7.530061,1.103808 -18.596968,2.698197 -24.529742,3.67936c-5.932776,0.981162 -16.999683,2.57555 -24.529744,3.679358c-7.530061,1.103808 -18.596968,2.698197 -24.529742,3.67936c-5.932776,0.981162 -16.999683,2.57555 -24.529744,3.67936c-7.53006,1.103808 -18.140601,2.698196 -23.502916,3.679358c-5.362316,0.981162 -11.523274,1.83968 -13.576927,1.83968c-2.053652,0 -8.214612,0.858517 -13.576927,1.83968c-5.362316,0.981162 -15.972855,2.57555 -23.502916,3.679358c-7.530061,1.103808 -18.596968,2.698197 -24.529742,3.67936c-5.932776,0.981162 -16.999683,2.57555 -24.529744,3.67936c-7.530061,1.103808 -18.140601,2.698196 -23.502916,3.679358c-5.362316,0.981162 -11.523275,1.83968 -13.576927,1.83968c-2.053654,0 -8.214612,0.858517 -13.576927,1.83968c-5.362316,0.981162 -15.972857,2.57555 -23.502916,3.679358c-7.530061,1.103808 -18.596968,2.698197 -24.529744,3.67936c-5.932775,0.981162 -16.999681,2.57555 -24.529742,3.67936c-7.530061,1.103808 -18.140601,2.698196 -23.502916,3.679358c-5.362316,0.981162 -11.523275,1.83968 -13.576927,1.83968c-2.053654,0 -8.214612,0.858517 -13.576927,1.83968c-5.362316,0.981162 -15.972857,2.57555 -23.502916,3.679358c-7.530061,1.103808 -18.596969,2.698197 -24.529744,3.67936c-5.932775,0.981162 -16.999683,2.57555 -24.529742,3.67936c-7.530061,1.103808 -18.596968,2.698196 -24.529744,3.679358c-5.932775,0.981162 -14.717845,2.33026 -19.39561,2.943487c-4.677765,0.735872 -10.496448,1.717035 -12.778285,2.08497c-3.422755,0.613227 -4.335489,0.367935 -4.335489,-0.981162z" id="svg_4"/>
   <path stroke="null" d="m332.666089,4275.663521c0,-1.717033 0.684551,-4.66052 1.483193,-6.377555c0.912734,-1.83968 2.395929,-5.273748 3.422755,-7.604008c13.12056,-31.887778 16.999683,-40.71824 28.865232,-66.841688c4.677765,-10.056915 10.268264,-21.953508 12.550101,-26.36874c2.281837,-4.41523 5.362316,-10.42485 6.959602,-13.490983c1.483193,-3.066133 3.765029,-7.113427 5.02004,-9.198398c1.140918,-1.962323 2.510019,-4.537875 2.966386,-5.519038c1.939562,-4.66052 16.885591,-24.77435 20.650621,-27.963128c16.771499,-14.10421 35.482558,-14.962726 48.945394,-2.207615c7.301876,6.868137 9.469622,12.26453 9.469622,23.302607c0,5.151103 -0.684551,11.038076 -1.597287,13.245691c-0.798643,2.207615 -2.395928,7.358718 -3.536845,11.406013c-1.026828,4.047295 -2.624113,9.566335 -3.422755,12.26453c-0.684551,2.698197 -2.281837,8.217235 -3.422755,12.26453c-1.140918,4.047295 -2.624113,9.566335 -3.422755,12.26453c-1.93956,6.868137 -4.563673,15.821243 -6.845509,24.52906c-1.140919,4.047295 -2.624113,9.321043 -3.422755,11.651303c-0.798643,2.33026 -2.281837,7.60401 -3.422755,11.651305c-6.160958,22.68938 -6.959601,23.915833 -15.288304,23.915833c-2.852296,0 -10.496449,0.858516 -16.885591,1.83968c-6.503233,0.981161 -16.999683,2.698196 -23.388824,3.679358c-6.503235,0.981162 -13.576927,1.83968 -15.744673,1.83968c-2.167744,0 -7.872335,0.735872 -12.5501,1.717035c-4.677765,0.858516 -12.778285,2.08497 -17.912417,2.452905l-9.469623,0.735872l0,-3.188778l0.000002,-0.000002z" id="svg_5"/>
   <path stroke="null" d="m52.798837,4197.17053c-0.456367,-0.49058 -0.798643,-6.868136 -0.798643,-14.104208c0,-11.896595 0.228184,-13.368338 2.167744,-14.594792c1.25501,-0.613226 3.08048,-1.226453 4.107306,-1.226453c1.026826,0 5.362316,-1.83968 9.469622,-4.16994c10.952816,-5.886973 12.550101,-6.990782 20.194254,-12.387175c8.442795,-6.132265 19.623794,-11.896593 28.180681,-14.59479c13.348744,-4.16994 40.844874,-3.679358 56.589545,0.981162c5.590501,1.717035 22.361998,10.17956 31.032977,15.575953c12.550101,7.971945 19.053335,10.547495 31.489344,12.26453c8.328704,1.226453 12.550101,1.226453 20.53653,0c13.805111,-2.08497 19.39561,-4.41523 38.10667,-16.066533c11.181,-6.990782 13.462836,-8.09459 26.241121,-12.509822c6.27505,-2.33026 10.154172,-2.698196 26.241121,-2.698196c14.033295,0 20.422436,0.49058 25.100201,1.962325c3.422755,1.103808 7.644153,2.33026 9.241438,2.698196c4.335489,0.981162 4.905948,4.047295 1.711378,9.811625c-1.483195,2.698196 -4.107306,7.849298 -5.818684,11.160722c-1.711377,3.434068 -3.879122,6.868136 -4.905948,7.604008c-1.825469,1.59439 -2.167744,1.59439 -14.37557,-1.471743c-13.348744,-3.434069 -32.287987,-0.122645 -48.603119,8.58517c-10.268264,5.396393 -17.113773,9.443688 -17.798325,10.547495c-0.342275,0.613227 -1.483193,1.103808 -2.624111,1.103808c-1.026826,0 -2.510021,0.613227 -3.308663,1.471745c-1.597285,1.717033 -7.301876,3.924648 -17.912417,7.113427c-5.932775,1.839678 -11.751457,2.452905 -22.590182,2.452905c-22.133815,0 -33.200721,-3.434068 -60.126392,-18.642085c-15.516488,-8.707817 -31.032977,-13.85892 -42.213976,-13.85892c-15.972857,0 -36.509385,7.726655 -47.348109,17.78357c-8.214612,7.604008 -22.247906,13.736273 -34.798008,15.330663c-3.536845,0.367935 -6.731417,0.367935 -7.187784,-0.122647z" id="svg_6"/>
   <path stroke="null" d="m636.720809,4194.227043c-7.986428,-2.207615 -21.449264,-7.849298 -24.415652,-10.302205c-1.825469,-1.594388 -10.496448,-6.5002 -20.536528,-11.773948c-10.04008,-5.396393 -17.113774,-7.236073 -29.777968,-8.09459c-19.737886,-1.471743 -39.475771,4.292585 -57.045913,16.557115c-13.006468,8.953107 -19.509704,12.387175 -24.073377,12.387175c-3.650937,0 -3.879122,-0.613226 -2.053652,-7.849298c0.684551,-2.698197 1.93956,-8.33988 2.852295,-12.387175c1.026828,-4.047295 2.053654,-8.707817 2.510021,-10.302205c1.25501,-4.415232 32.744354,-24.651705 38.563038,-24.651705c0.912734,0 2.852295,-0.613227 4.221396,-1.471745c1.369103,-0.735871 8.556887,-2.08497 15.972857,-2.820841c25.784753,-2.575552 47.119924,2.207615 66.059169,14.962726c15.402396,10.302205 25.214293,14.226855 40.388505,16.18918c18.596969,2.452905 31.375253,-0.735872 49.515853,-11.896595c5.818684,-3.556713 19.167428,-10.547495 24.529744,-12.75511c12.778285,-5.273748 30.804794,-7.604008 49.059486,-6.622845c13.576927,0.858516 22.47609,3.311423 33.885272,9.321043c7.415969,3.924648 8.442795,4.537875 16.315132,9.811623c9.811897,6.622845 18.711059,10.302205 32.059803,13.000402c9.811897,2.08497 10.952815,2.08497 20.536528,0.122645c14.831939,-3.066133 20.080162,-5.396393 34.455732,-14.59479c19.966069,-12.877757 26.012937,-15.208017 44.723996,-17.415633c25.898844,-3.066133 51.683597,2.943487 68.112821,15.943888c1.93956,1.59439 3.993214,2.943487 4.449581,2.943487c0.456367,0 1.711377,0.735872 2.624111,1.717035c2.966388,2.820842 15.174214,8.953107 19.737887,9.811623c5.248224,0.981162 5.704591,2.452907 5.248224,17.292988l-0.342275,11.038077l-3.993214,0.367935c-4.905948,0.490582 -14.033295,-2.57555 -24.529742,-8.58517c-19.851979,-11.038077 -31.261161,-16.67976 -36.509386,-18.151505c-10.268264,-2.698196 -24.643834,-2.943487 -36.737568,-0.613226c-13.576927,2.57555 -21.221079,5.764328 -36.85166,15.821243c-14.37557,9.075752 -16.429222,10.17956 -26.811579,13.123047c-11.180998,3.188778 -36.737568,3.188778 -47.918566,0c-10.382357,-2.943487 -12.207826,-3.92465 -28.522958,-14.226855c-15.516488,-9.811625 -18.140601,-10.915432 -30.804792,-14.226855c-15.744673,-3.92465 -30.804794,-2.57555 -46.77765,4.047295c-3.080478,1.349098 -12.892375,6.25491 -21.677446,10.792787c-19.167428,9.934268 -22.590182,11.406013 -33.200723,13.981563c-11.180998,2.698197 -32.744354,2.452905 -43.240802,-0.49058l0,-0.000002z" id="svg_7"/>
   <path stroke="null" d="m53.141113,4141.489565c-0.798643,-0.49058 -1.140918,-5.764328 -0.912734,-14.59479l0.342275,-13.858918l3.993214,-1.59439c7.644153,-2.943486 8.899163,-3.679358 23.959283,-14.226853c10.496448,-7.358719 13.234652,-8.707817 22.818365,-12.141885c21.335172,-7.481364 35.59665,-9.443688 52.938608,-7.358718c24.073375,2.820841 42.898526,9.566333 58.871383,20.972346c10.496448,7.481363 14.946029,8.830462 30.00615,9.321043c17.684233,0.613227 23.274733,-1.226453 42.442161,-14.472145c12.664193,-8.707815 23.617008,-12.632465 43.354893,-15.330663c19.966071,-2.820842 39.247589,-0.367935 57.045914,7.113427c10.496448,4.41523 22.47609,11.160722 23.046549,12.75511c0.342275,0.981162 -2.281836,6.500202 -5.932775,12.26453c-6.503235,10.42485 -6.503235,10.547495 -10.496448,9.68898c-2.167746,-0.367937 -5.590501,-1.471745 -7.644153,-2.452907c-6.731419,-3.066133 -16.086948,-5.273748 -28.294773,-6.868136c-10.610541,-1.349099 -14.261478,-1.349099 -26.811579,0.49058c-8.10052,1.103808 -17.341958,2.820842 -20.650621,3.802005c-7.073692,2.207615 -20.194253,8.953106 -28.180681,14.472145c-12.550101,8.830461 -22.133815,12.019238 -35.824834,12.019238c-13.234652,0 -21.791539,-2.943487 -33.885272,-11.283368c-14.375571,-9.934268 -33.542998,-16.557114 -56.019088,-19.500601c-9.35553,-1.226454 -14.147386,-1.226454 -23.388824,0c-19.623794,2.57555 -44.153537,11.283366 -51.22723,18.028858c-0.912736,0.981162 -2.167746,1.717035 -2.738204,1.717035c-0.570459,0 -1.825469,0.735871 -2.738204,1.717033c-6.389142,5.886975 -20.764712,11.528659 -24.073375,9.321043z" id="svg_8"/>
   <path stroke="null" d="m644.136776,4139.036659c-6.731417,-1.962325 -16.31513,-6.745491 -20.422436,-10.17956c-1.93956,-1.717035 -5.134132,-3.679358 -11.523275,-6.990782c-2.852295,-1.471743 -6.046866,-3.188778 -7.301876,-3.924648c-6.84551,-3.92465 -30.462518,-8.217235 -46.20719,-8.339882c-12.892377,0 -28.979325,1.962325 -38.334855,4.537877c-7.415968,2.207615 -19.39561,7.971945 -22.47609,11.038077c-1.026826,0.981162 -2.624111,1.594388 -3.650939,1.349098c-2.510019,-0.613227 -17.798325,-14.59479 -17.798325,-16.311825c0,-2.08497 11.066908,-11.773948 19.966071,-17.292988c21.905631,-13.858918 52.368148,-19.255312 81.575656,-14.59479c5.932775,0.858517 13.919203,2.820842 17.684233,4.292585c3.765031,1.471745 7.872335,2.943487 9.127346,3.311423c1.25501,0.490582 4.791857,2.330262 7.758243,4.292587c2.966388,1.83968 5.704592,3.434068 5.932776,3.434068c0.228184,0 3.536847,2.207615 7.187784,4.905812c8.785071,6.132265 14.603755,8.58517 25.214294,10.056915c16.543315,2.33026 31.375253,-1.471745 45.180364,-11.406014c13.006468,-9.443688 32.630262,-16.434468 54.30771,-19.377956c12.892377,-1.83968 18.026509,-1.717035 30.804794,0.49058c20.422436,3.434068 33.542997,8.830462 50.428587,20.60441c8.10052,5.641685 14.147386,8.09459 23.046549,9.566333c8.670979,1.349099 24.41565,0.122645 31.261161,-2.452905c4.677765,-1.717035 8.10052,-3.802005 21.905631,-12.632465c2.966386,-1.962325 10.496448,-5.396393 19.281518,-8.953107c8.670979,-3.434068 33.200721,-7.971945 43.012618,-7.971945c19.966071,0.122645 53.509067,12.387175 73.361046,26.85932c12.207824,8.830462 11.409182,7.236073 11.409182,23.057317c0,10.792786 -0.342275,13.858918 -1.483193,13.858918c-2.624113,0 -9.013254,-3.67936 -16.771499,-9.811623c-6.731417,-5.273748 -12.207826,-8.217235 -23.959283,-12.877757c-9.925989,-3.802005 -30.57661,-7.849298 -41.073058,-7.971945c-7.415969,0 -28.294773,2.943487 -34.798008,5.028457c-14.147386,4.292587 -20.080161,6.500202 -20.650621,7.358718c-0.342275,0.613227 -1.25501,1.103808 -2.167744,1.103808c-0.798643,0 -6.160958,2.943487 -11.979642,6.622847c-13.805111,8.830461 -23.046549,11.773948 -36.509385,11.773948c-12.436008,0 -23.046549,-3.066133 -32.173895,-9.198398c-11.180998,-7.604008 -25.442476,-14.472145 -34.113455,-16.434468c-2.167746,-0.490582 -4.677765,-1.349099 -5.362317,-1.83968c-1.93956,-1.349099 -22.590182,-4.415232 -29.207507,-4.415232c-6.617325,0 -29.777968,3.066133 -31.375253,4.16994c-0.570459,0.490582 -3.308663,1.226454 -6.046866,1.83968c-8.556887,1.962325 -23.617008,8.830462 -32.287987,14.840082c-15.630581,10.67014 -33.428906,13.736273 -50.770863,8.58517l-0.000002,0z" id="svg_9"/>
  </g>
  <text fill="#ffffff" stroke-width="0" stroke-opacity="null" x="290.986826" y="170.909234" id="svg_10" font-size="24" font-family="Euphoria, sans-serif" text-anchor="start" xml:space="preserve" transform="matrix(2.3712600028525395,0,0,2.576965681054672,-583.9610630616519,-381.94577284500673) " stroke="#000" font-weight="bold">FERRY</text>
 </g>
</svg>