<?xml version="1.0" standalone="no"?>
<!DOCTYPE svg PUBLIC "-//W3C//DTD SVG 20010904//EN"
 "http://www.w3.org/TR/2001/REC-SVG-20010904/DTD/svg10.dtd">
<svg version="1.0" xmlns="http://www.w3.org/2000/svg"
 width="384.000000pt" height="384.000000pt" viewBox="0 0 384.000000 384.000000"
 preserveAspectRatio="xMidYMid meet">
<metadata>
Created by potrace 1.10, written by Peter Selinger 2001-2011
</metadata>
<g transform="translate(0.000000,384.000000) scale(0.100000,-0.100000)"
fill="#6f6b6b" stroke="none">
<path d="M772 3748 c-62 -24 -112 -80 -130 -144 -9 -30 -12 -208 -12 -627 0
-647 -5 -597 65 -597 21 0 35 6 39 16 3 9 6 281 6 605 l0 589 29 32 29 33 908
3 c804 2 910 1 930 -13 l24 -15 0 -251 c0 -243 1 -252 24 -303 28 -60 80 -106
142 -124 27 -8 124 -12 272 -12 127 0 242 -4 256 -10 l26 -10 0 -1345 0 -1345
-29 -32 -29 -33 -1229 -3 c-675 -1 -1242 0 -1260 3 -18 3 -45 19 -60 35 l-28
30 -5 248 -5 247 -50 0 -50 0 -3 -234 c-3 -270 4 -308 68 -370 78 -76 -12 -71
1365 -71 1376 0 1288 -5 1364 71 76 76 71 -26 71 1479 l0 1344 -415 413 -415
413 -922 -1 c-912 0 -924 -1 -976 -21z m2231 -472 c114 -113 207 -209 207
-215 0 -8 -58 -11 -183 -11 l-183 0 -34 29 -35 29 -3 172 c-3 168 -1 200 15
200 4 0 101 -92 216 -204z"/>
<path d="M478 2247 c-44 -12 -107 -67 -134 -117 -18 -33 -19 -66 -22 -555 -2
-465 -1 -525 14 -565 20 -54 64 -103 116 -130 38 -20 59 -20 1218 -20 1159 0
1180 0 1218 20 55 29 98 78 116 133 14 41 16 117 16 553 0 485 -1 507 -20 549
-11 25 -36 60 -54 79 -70 70 -1 66 -1280 65 -766 -1 -1163 -5 -1188 -12z
m2051 -358 c43 -16 46 -20 45 -52 -1 -47 -35 -116 -56 -117 -10 0 -37 6 -60
14 -79 27 -116 30 -143 12 -53 -35 -30 -63 108 -131 99 -49 143 -93 163 -163
15 -49 14 -58 -1 -105 -21 -66 -48 -102 -94 -131 -50 -32 -174 -59 -231 -51
-67 10 -151 33 -166 46 -19 16 -20 157 0 165 7 3 40 -4 72 -15 72 -26 195 -29
214 -6 26 32 4 61 -77 100 -113 55 -149 80 -183 127 -27 37 -30 49 -30 115 0
90 26 138 97 180 76 45 242 51 342 12z m-1572 -1 c11 -13 23 -30 27 -38 3 -8
15 -28 26 -45 11 -16 24 -39 30 -50 12 -26 36 -55 44 -55 4 0 11 10 16 23 11
23 48 88 87 150 l23 37 105 0 c73 0 105 -4 105 -12 0 -10 -65 -125 -112 -196
-10 -15 -21 -34 -25 -42 -3 -8 -10 -17 -13 -20 -11 -8 -60 -96 -60 -107 0 -8
60 -95 90 -130 5 -7 10 -15 10 -18 0 -4 19 -32 43 -63 104 -138 103 -142 -31
-142 -104 0 -109 2 -137 51 -39 69 -97 159 -103 159 -7 0 -13 -9 -97 -137
l-47 -73 -99 0 c-120 0 -127 7 -75 80 20 27 36 52 36 54 0 2 34 54 75 115 41
62 75 116 75 122 0 5 -8 22 -19 37 -18 26 -93 142 -160 249 -18 29 -30 57 -26
63 3 6 46 10 99 10 83 0 95 -2 113 -22z m762 9 c7 -9 12 -105 13 -283 l3 -269
133 -3 133 -3 -3 -77 -3 -77 -215 -3 c-118 -1 -225 0 -237 3 l-23 5 0 348 c0
257 3 351 12 360 17 17 172 16 187 -1z"/>
</g>
</svg>
